<?xml version="1.0" standalone="no"?><!DOCTYPE svg PUBLIC "-//W3C//DTD SVG 1.1//EN" "http://www.w3.org/Graphics/SVG/1.1/DTD/svg11.dtd"><svg width="200" height="200" viewBox="0 0 200 200" version="1.1" xmlns="http://www.w3.org/2000/svg" xmlns:xlink="http://www.w3.org/1999/xlink"><defs><style type="text/css"><![CDATA[

]]></style></defs><g class="transform-group"><g transform="scale(0.1953125, 0.1953125)"><path d="M781.944 374.484c0-72.59-30.38-141.222-79.362-191.357-47.767-48.863-113.21-80.067-185.347-80.067-73.254 0-139.46 29.05-187.344 75.995-47.805 46.865-77.365 111.662-77.365 183.194 0 4.679 0.02 5.05 0.04 5.716l0.195 6.519H212.67c0-3.818-0.04-4.756-0.04-5.422l-0.194-6.813c0-82.632 34.18-157.51 89.443-211.697 55.185-54.107 131.317-87.583 215.357-87.583 83.395 0 158.958 35.961 214.007 92.282 56.028 57.377 90.796 135.995 90.796 219.233h-40.094zM233.89 394.452c-0.02 0-10.884 0.468-8.399 24.099l1.194 11.374-9.26 6.792c-0.019 0.02-13.839 9.945 3.935 35.296l10.846 15.446-14.838 11.726c-0.352 0.294-118.612 91.48-78.422 218.802 14.878-9.044 34.22-24.49 39.329-45.847l18.265-76.21 20.476 75.681c0.078 0.235 23.491 87.955 47.08 103.558l29.972 19.792-32.711 15.035c-0.098 0.058-57.77 6.539-47.786 12l20.672 11.315-14.485 18.52c-0.12 0.155-42.403 53.051 79.733 66.05 145.313 15.464 172.054-33.123 172.133-33.26l5.873-9.788h71.139l4.779 13.31c0.038 0.08 11.155 36.845 151.517 32.674 47.295-1.408 75.25-10.316 90.853-21.848 7.828-5.774 12.04-12.039 13.879-17.99 1.743-5.637 1.448-11.295 0.176-16.033-1.114-4.071-2.034-6.48-2.466-6.733l-25.116-15.368 23.53-17.638c-0.332 0.176-4.582 1.292-51.935-21.298l-26.723-12.764 21.79-20.046c0.116-0.118 44.145-40.093 54.01-94.632l22.004-121.547 17.46 122.232c0 0.078 3.682 24.079 37.393 43.479 16.052-27.23 41.266-104.127-66.324-235.247l-7.243-8.809 3.799-10.61c0.039-0.118 16.325-43.948-22.593-85.41l29.11-27.388c41.992 44.691 38.586 93.3 34.24 114.873 150.774 189.986 49.606 291.605 49.33 291.9l-9.552 9.768-12.53-5.383c-23.256-9.986-39.424-22.787-50.623-35.277-9.944 21.18-22.435 38.721-32.614 51.134 42.44 24.685 49.528 44.947 46.903 58.453a61.765 61.765 0 0 1 6.812 15.974c2.977 11.042 3.603 24.392-0.625 38.114-4.15 13.431-12.82 26.918-28.287 38.35-21.436 15.857-56.906 27.995-113.562 29.68-119.806 3.542-165.221-27.33-181.59-45.83h-26.387c-18.185 18.734-72.08 56.654-202.789 42.736-148.818-15.838-132.512-83.786-116.655-114.814-10.766-20.34 19.655-43.106 42.754-56.79-11.627-17.521-21.573-40.62-28.973-60.609-24.45 26.29-56.693 38.995-56.81 39.035l-18.01 7.204-7.752-17.774c-59.512-136.055 33.593-240.767 69.573-274.498-15.485-32.222-3.68-54.97 5.736-66.441-0.978-55.988 46.298-58.455 46.415-58.455l2.35 39.935z" fill="#272636"></path></g></g></svg>